<?xml version="1.0" standalone="no"?>
<!DOCTYPE svg PUBLIC "-//W3C//DTD SVG 20010904//EN"
 "http://www.w3.org/TR/2001/REC-SVG-20010904/DTD/svg10.dtd">
<svg version="1.0" xmlns="http://www.w3.org/2000/svg"
 width="810.000000pt" height="810.000000pt" viewBox="0 0 810.000000 810.000000"
 preserveAspectRatio="xMidYMid meet">
<metadata>
Created by potrace 1.14, written by Peter Selinger 2001-2017
</metadata>
<g transform="translate(0.000000,810.000000) scale(0.100000,-0.100000)"
fill="#000000" stroke="none">
<path d="M30 7513 c0 -307 -7 -819 -15 -1138 -40 -1600 -1 -2367 156 -3058
328 -1444 1245 -2343 3104 -3039 367 -138 763 -263 798 -253 101 29 497 160
642 212 1517 547 2413 1219 2896 2170 271 535 408 1124 470 2028 17 250 22
1193 9 1650 -6 231 -14 772 -17 1203 l-6 782 -4018 0 -4019 0 0 -557z m1867
-106 c-10 -172 -65 -356 -137 -456 -72 -102 123 55 217 174 82 103 199 202
296 250 94 46 284 107 371 120 l49 8 -33 -59 c-76 -136 -166 -226 -283 -285
-86 -44 -250 -96 -343 -109 l-81 -12 -95 -96 c-119 -121 -223 -245 -208 -250
11 -4 39 9 150 72 110 61 209 88 325 89 98 0 264 -27 349 -56 l38 -13 -61 -56
c-74 -67 -184 -124 -266 -139 -120 -22 -333 9 -444 65 -72 37 -103 34 -139
-11 -114 -148 -265 -418 -345 -623 -43 -107 -121 -359 -114 -366 1 -2 28 17
59 41 44 36 63 60 91 119 67 141 145 236 260 315 59 40 296 156 304 148 8 -9
-36 -145 -69 -210 -39 -79 -104 -147 -203 -212 -95 -63 -166 -96 -264 -121
-55 -14 -86 -30 -130 -66 -54 -43 -59 -51 -69 -105 -35 -180 -45 -297 -46
-493 0 -190 16 -380 33 -380 17 0 62 94 76 161 32 155 81 272 158 375 63 83
286 294 312 294 9 0 -3 -126 -21 -215 -8 -38 -26 -94 -40 -125 -61 -132 -225
-305 -372 -392 -45 -26 -112 -113 -112 -145 0 -31 57 -252 88 -343 41 -118
162 -380 175 -380 1 0 2 66 2 148 0 136 2 154 29 237 32 97 154 346 172 352
16 5 78 -147 99 -242 24 -105 16 -203 -24 -325 -35 -103 -94 -221 -143 -282
-38 -48 -37 -48 65 -184 145 -191 335 -383 520 -526 l79 -61 -7 44 c-4 24 -12
51 -18 60 -7 9 -34 45 -60 80 -101 134 -166 306 -167 437 0 121 61 431 87 439
17 6 173 -156 211 -219 65 -109 75 -155 69 -323 -6 -169 -19 -230 -77 -350
-37 -79 -39 -89 -24 -162 10 -50 345 -252 629 -378 102 -45 364 -145 380 -145
3 0 5 9 5 19 0 13 -22 33 -63 59 -156 98 -290 230 -344 336 -67 133 -103 316
-103 528 l0 139 23 -7 c51 -16 208 -94 263 -131 134 -92 202 -194 250 -379 34
-129 38 -331 9 -434 -23 -81 -23 -120 0 -136 47 -34 455 -114 688 -135 223
-20 598 -1 717 36 8 3 23 31 33 62 15 50 15 64 5 98 -21 67 -15 334 10 425 49
181 90 253 197 342 66 56 255 159 319 174 l29 7 -6 -164 c-12 -366 -82 -542
-286 -715 -91 -78 -216 -158 -235 -151 -8 3 -18 -5 -25 -19 -23 -52 -18 -54
82 -28 212 56 388 125 587 230 113 60 350 213 350 226 0 4 11 8 25 8 14 0 25
6 26 13 0 6 37 41 81 77 112 90 302 282 398 401 75 93 214 293 226 324 3 7
-14 37 -38 67 -82 101 -151 257 -183 415 -14 69 -15 94 -5 158 13 83 45 186
80 255 21 42 23 43 37 24 28 -37 133 -260 159 -339 34 -105 42 -243 20 -375
-8 -52 -13 -96 -11 -98 2 -2 19 27 39 65 90 179 174 419 221 631 l27 122 -32
50 c-23 35 -54 65 -103 96 -100 65 -169 127 -244 219 -78 96 -127 193 -147
297 -18 86 -21 202 -6 196 5 -1 50 -38 100 -81 192 -165 295 -321 345 -523 14
-54 25 -106 25 -116 0 -18 49 -98 61 -98 13 0 19 68 26 292 6 231 -2 363 -33
533 -21 112 -19 109 -78 154 -38 30 -75 47 -131 62 -135 35 -297 129 -382 223
-27 29 -63 82 -80 117 -35 71 -70 185 -60 195 9 10 142 -50 237 -107 159 -94
229 -170 309 -332 40 -79 59 -105 100 -138 41 -33 51 -37 51 -22 0 28 -43 177
-80 278 -111 304 -357 725 -423 725 -12 0 -57 -16 -102 -35 -155 -66 -372 -82
-497 -35 -65 24 -155 80 -218 137 l-44 40 114 28 c99 25 135 29 265 29 147 1
152 0 231 -32 44 -17 109 -49 145 -71 72 -43 109 -57 109 -42 0 17 -97 132
-201 237 -98 101 -100 102 -157 109 -116 14 -229 49 -361 113 -56 27 -95 56
-151 112 -71 71 -168 215 -155 228 10 10 240 -51 330 -87 43 -18 106 -48 139
-68 69 -42 186 -150 245 -226 45 -59 209 -212 218 -204 3 3 -17 52 -45 109
-62 126 -90 237 -98 388 l-6 115 70 -71 c48 -50 81 -95 108 -150 38 -76 39
-81 39 -183 0 -59 -6 -141 -14 -184 -13 -74 -13 -80 5 -101 10 -13 50 -61 87
-107 99 -121 236 -330 309 -472 l63 -122 7 85 c12 145 59 315 116 425 l21 40
30 -67 c110 -240 94 -418 -56 -645 l-35 -53 25 -77 c77 -238 127 -534 127
-755 0 -59 4 -108 8 -108 5 0 22 30 38 68 60 143 152 278 271 400 l64 67 -5
-125 c-12 -317 -106 -516 -328 -699 l-71 -58 -28 -134 c-43 -210 -102 -389
-193 -591 -14 -32 -24 -58 -21 -58 2 0 41 25 85 55 44 30 87 55 94 55 22 0
193 88 293 150 53 33 97 59 99 57 5 -5 -43 -183 -66 -245 -31 -83 -79 -173
-118 -221 -66 -82 -259 -149 -454 -158 l-117 -6 -38 -56 c-59 -86 -185 -242
-259 -321 -37 -39 -65 -73 -62 -75 3 -3 25 2 49 11 113 40 213 55 405 61 114
3 198 2 208 -4 15 -8 4 -22 -69 -91 -97 -92 -147 -129 -238 -175 -56 -28 -72
-32 -174 -35 -116 -4 -205 9 -317 48 l-53 18 -89 -72 c-50 -39 -127 -95 -172
-125 -45 -29 -79 -57 -76 -62 3 -5 23 -9 44 -9 126 0 343 -118 550 -299 l45
-40 -86 -39 c-153 -71 -292 -100 -400 -83 -126 21 -297 114 -423 231 -63 59
-69 63 -94 53 -273 -113 -499 -178 -727 -208 -65 -9 -42 -20 59 -29 172 -15
418 -71 529 -120 29 -13 70 -38 91 -56 39 -34 112 -132 140 -187 l16 -32 -133
69 c-172 89 -221 104 -412 129 -176 22 -258 44 -513 142 -147 56 -158 59 -289
68 l-137 11 -196 -74 c-278 -105 -345 -125 -494 -141 -208 -24 -259 -38 -422
-120 -82 -41 -149 -73 -151 -71 -6 5 97 153 132 189 90 93 278 148 671 197
132 16 245 30 252 30 6 0 12 3 12 8 0 4 -63 20 -139 35 -226 46 -462 120 -678
213 -56 24 -107 44 -112 44 -6 0 -18 -14 -26 -31 -23 -44 -140 -159 -210 -206
-78 -52 -163 -95 -247 -123 -126 -42 -288 -19 -472 68 l-79 37 64 57 c140 122
312 228 429 262 49 15 205 21 320 13 49 -4 32 19 -51 66 -46 27 -136 83 -199
126 -105 71 -122 78 -176 83 -39 4 -71 1 -92 -8 -101 -42 -197 -59 -337 -59
l-140 0 -71 37 c-84 43 -203 137 -270 211 l-47 52 164 3 c297 5 539 -58 703
-183 37 -28 55 -35 82 -33 l34 3 -82 65 c-110 87 -358 334 -445 443 l-70 89
-139 3 c-148 3 -228 19 -362 72 -89 36 -146 94 -200 204 -37 76 -112 307 -112
345 0 8 35 -10 93 -47 50 -34 135 -81 187 -106 52 -25 123 -58 157 -74 37 -18
92 -58 137 -100 42 -39 76 -68 76 -65 0 3 -27 57 -59 119 -110 207 -191 425
-233 626 l-23 113 -87 73 c-135 116 -234 250 -271 370 -25 78 -45 209 -52 335
l-7 115 47 -45 c120 -114 245 -296 301 -437 16 -40 32 -73 37 -73 4 0 7 53 7
118 0 235 49 524 131 779 l20 61 -45 67 c-56 83 -104 198 -117 275 -16 99 18
256 83 384 l20 40 16 -30 c57 -107 99 -258 115 -410 l12 -119 38 79 c85 179
216 381 357 552 92 111 86 85 60 259 -27 172 16 307 137 436 36 38 68 69 71
69 3 0 2 -51 -1 -113z m1268 -691 c38 -25 54 -72 68 -199 l13 -112 765 -3 765
-2 12 111 c17 163 51 216 143 226 89 9 147 -49 156 -157 l6 -60 -31 0 c-30 0
-32 3 -39 42 -9 61 -52 103 -96 94 -61 -12 -72 -34 -75 -151 l-4 -105 54 0
c31 -1 61 -7 72 -15 12 -9 42 -15 78 -15 l58 0 0 -849 c0 -665 -3 -850 -12
-853 -7 -3 -27 4 -44 14 -24 14 -33 29 -42 69 -7 28 -12 62 -12 76 0 15 -7 27
-17 30 -17 4 -73 84 -73 103 0 5 19 10 43 12 l42 3 0 175 0 175 -177 3 -178 2
0 -180 0 -180 75 0 74 0 -25 -25 c-13 -13 -27 -38 -30 -55 -6 -28 -10 -30 -50
-30 l-44 0 0 -190 0 -190 178 2 177 3 5 45 5 45 17 -42 c11 -29 28 -50 52 -64
l36 -21 0 -371 c0 -206 -4 -367 -9 -361 -18 20 -191 254 -191 258 0 3 19 6 43
8 l42 3 0 195 0 195 -177 3 -178 2 0 -189 0 -190 44 -3 45 -3 -56 -100 c-31
-55 -67 -120 -80 -143 l-25 -44 -84 142 c-46 79 -84 144 -84 146 0 2 18 4 40
4 l40 0 0 190 0 190 -195 0 -195 0 2 -197 3 -198 43 -5 42 -5 -82 -137 c-46
-76 -86 -136 -91 -135 -4 1 -46 63 -93 137 l-84 135 37 5 38 5 3 198 2 197
-175 0 -175 0 0 -195 0 -194 59 -3 58 -3 -100 -153 c-55 -84 -101 -151 -102
-150 -2 2 -44 71 -94 153 l-92 150 66 3 65 3 0 194 0 195 -185 0 -185 0 0
-200 0 -200 40 0 c22 0 40 -2 40 -5 0 -3 -47 -64 -105 -136 l-105 -131 0 373
0 374 30 17 c17 9 35 30 41 45 19 49 26 58 43 61 13 3 16 -6 16 -47 l0 -51
185 0 185 0 0 190 0 190 -64 0 c-63 0 -64 0 -70 30 -3 17 -17 42 -30 55 l-25
25 94 0 95 0 0 180 0 180 -185 0 -185 0 0 -180 0 -180 30 0 c32 0 38 -14 16
-39 -24 -27 -87 -160 -93 -197 -5 -28 -14 -39 -44 -55 l-39 -19 0 855 0 855
53 0 c31 0 61 6 73 15 11 8 41 14 72 15 l54 0 -4 105 c-3 117 -14 139 -75 151
-44 9 -87 -33 -96 -94 -7 -39 -9 -42 -38 -42 l-32 0 7 63 c9 76 31 116 76 140
42 22 116 18 155 -7z m-396 -175 l16 -24 -54 6 c-62 7 -116 -10 -125 -41 -4
-11 -27 -37 -52 -58 -46 -37 -46 -37 -31 -8 8 16 42 57 76 92 59 62 61 63 107
60 36 -2 50 -8 63 -27z m2598 16 c24 -14 133 -133 133 -147 0 -5 -18 3 -40 17
-22 15 -40 32 -40 38 0 6 -12 22 -26 36 -22 21 -34 24 -90 22 -66 -3 -69 -1
-41 35 12 15 75 15 104 -1z m-2329 -79 c7 -7 12 -21 12 -33 0 -42 -15 -45
-210 -45 -174 0 -188 1 -205 20 -15 17 -16 24 -7 45 l12 25 193 0 c137 0 196
-3 205 -12z m2348 -15 c14 -55 5 -58 -206 -58 -182 0 -193 1 -205 20 -9 13
-10 28 -4 43 8 22 10 22 208 22 l201 0 6 -27z m-2788 -65 c7 -7 12 -18 12 -26
0 -16 -156 -199 -181 -213 -24 -12 -53 16 -40 39 14 25 181 212 189 212 5 0
13 -5 20 -12z m2941 -90 c90 -102 108 -139 74 -152 -17 -7 -62 35 -155 145
-57 67 -62 103 -16 108 3 1 47 -45 97 -101z m-2853 41 c-18 -26 -66 -59 -86
-59 -8 0 2 16 25 40 43 44 89 58 61 19z m2709 -19 c38 -39 35 -51 -8 -29 -28
15 -67 50 -67 61 0 21 40 4 75 -32z m-2995 -67 c0 -4 -9 -16 -19 -27 -17 -18
-20 -39 -23 -153 -2 -72 -6 -129 -10 -127 -25 16 -37 168 -18 233 13 45 70
106 70 74z m3264 -24 c25 -29 26 -37 26 -143 0 -81 -4 -118 -14 -132 -14 -18
-14 -17 -13 11 0 17 0 76 -1 132 -2 93 -4 104 -28 132 -19 23 -22 31 -11 31 8
0 27 -14 41 -31z m-3170 -239 l-7 -35 -13 30 c-20 45 -18 144 4 168 16 19 17
17 20 -54 2 -41 0 -90 -4 -109z m3066 85 c0 -60 -23 -128 -34 -100 -3 9 -6 58
-6 108 l1 92 19 -24 c14 -17 20 -38 20 -76z m-3125 -75 c4 -6 24 -72 46 -148
35 -122 37 -138 24 -152 -30 -29 -48 1 -88 144 -21 76 -36 144 -33 152 6 16
42 19 51 4z m3201 -3 c8 -22 -72 -290 -90 -302 -11 -7 -20 -5 -31 6 -16 15 -4
69 61 292 6 20 52 23 60 4z m-3046 -295 c26 -69 49 -155 44 -161 -19 -20 -77
117 -98 229 l-7 35 20 -23 c11 -13 29 -49 41 -80z m2866 -25 c-20 -65 -44
-121 -56 -132 -29 -26 -27 -7 14 115 31 92 62 148 74 136 2 -3 -12 -56 -32
-119z m-2976 -146 c0 -8 17 -32 37 -53 29 -30 33 -38 19 -38 -38 0 -82 61
-114 160 -33 97 -37 125 -25 156 4 12 19 -18 45 -96 21 -63 38 -121 38 -129z
m3115 70 c-28 -85 -43 -116 -67 -136 -49 -41 -68 -31 -25 13 20 21 37 47 37
57 0 11 17 69 37 130 35 104 38 108 46 78 8 -25 2 -52 -28 -142z m-2948 -123
c93 -93 112 -128 77 -142 -24 -9 -228 193 -218 217 13 36 48 17 141 -75z
m2861 67 c4 -27 -188 -218 -211 -209 -40 15 -28 38 70 136 100 100 134 118
141 73z m-2711 -113 c89 -36 93 -39 93 -68 0 -23 -1 -23 -18 -6 -11 11 -42 27
-71 37 -47 18 -109 65 -83 65 6 0 41 -12 79 -28z m2496 7 c-11 -12 -51 -34
-88 -50 -64 -27 -66 -27 -63 -7 2 15 22 28 73 49 87 35 107 37 78 8z m-2583
-130 c37 -1 56 -11 80 -42 l22 -28 -69 26 c-70 27 -123 67 -123 94 0 10 11 4
33 -17 18 -18 44 -32 57 -33z m2676 27 c-17 -28 -45 -44 -125 -76 l-51 -20 17
26 c18 28 50 44 87 44 12 0 35 13 51 30 33 35 45 32 21 -4z m-2521 -18 c19 -9
25 -19 25 -45 0 -18 -3 -33 -7 -33 -22 0 -73 42 -73 59 0 16 5 22 27 30 1 1
14 -4 28 -11z m2335 -3 c17 -20 7 -40 -29 -58 l-31 -15 0 38 c0 47 33 67 60
35z m-2074 -63 c56 -41 121 -117 127 -149 3 -15 -1 -41 -8 -58 l-13 -30 -1 36
c-1 23 -11 50 -29 75 -33 44 -107 114 -122 114 -6 0 -10 9 -10 20 0 27 10 25
56 -8z m1844 18 c0 -5 -12 -16 -27 -24 -40 -20 -141 -129 -147 -157 -3 -13 -7
-33 -9 -44 -3 -18 -5 -17 -17 7 -20 43 -4 78 74 156 54 53 79 72 99 72 15 0
27 -4 27 -10z m0 -85 c0 -39 -22 -48 -40 -16 -7 15 -6 23 6 35 24 25 34 19 34
-19z m-1880 1 c0 -14 -4 -28 -10 -31 -6 -4 -10 7 -10 24 0 17 5 31 10 31 6 0
10 -11 10 -24z m1880 -79 c0 -7 -13 -26 -30 -42 -26 -25 -30 -26 -30 -10 0 19
37 65 52 65 4 0 8 -6 8 -13z m-1860 -49 c0 -10 -4 -18 -8 -18 -16 0 -32 24
-32 49 0 23 1 24 20 6 11 -10 20 -26 20 -37z m84 26 c3 -9 6 -71 6 -139 0 -68
-3 -130 -6 -139 -8 -22 -41 -20 -54 3 -13 25 -13 231 0 265 11 29 44 35 54 10z
m1681 -139 l0 -150 -25 0 -25 0 -3 140 c-1 76 0 145 3 153 3 7 15 12 27 10 23
-3 23 -5 23 -153z m-1615 -89 c0 -50 -55 -169 -95 -206 l-27 -25 8 30 c4 17
24 59 46 94 32 53 38 72 38 118 0 48 2 54 15 43 9 -7 15 -29 15 -54z m1569
-116 c19 -30 37 -67 42 -82 7 -25 6 -26 -12 -15 -11 7 -40 53 -65 102 -47 93
-51 127 -21 163 10 13 13 4 17 -49 4 -49 14 -77 39 -119z m161 -12 c0 -31 -30
-8 -55 43 -14 27 -25 65 -25 86 1 38 1 38 40 -37 21 -41 39 -83 40 -92z
m-1880 126 c0 -36 -37 -117 -60 -132 -29 -18 -26 0 12 85 35 76 48 89 48 47z
m-646 -69 c69 -33 115 -90 140 -172 7 -21 4 -23 -28 -23 -31 0 -38 5 -55 39
-55 106 -178 141 -271 76 -89 -62 -105 -198 -32 -278 70 -78 201 -74 277 9 28
30 38 35 70 32 l37 -3 -34 -50 c-48 -71 -113 -108 -198 -113 -85 -5 -126 8
-183 58 -60 53 -87 113 -87 194 0 108 66 205 166 242 51 19 148 13 198 -11z
m3278 15 c97 -27 178 -135 178 -237 0 -78 -17 -127 -62 -178 -53 -60 -108 -85
-189 -85 -105 0 -187 50 -235 141 l-15 29 40 0 c32 0 43 -5 60 -29 46 -64 156
-89 229 -52 143 73 134 274 -17 337 -86 36 -185 -6 -232 -98 -17 -33 -24 -38
-54 -38 -19 0 -35 2 -35 4 0 2 6 22 14 44 46 130 183 199 318 162z m-2624
-120 c3 -22 -10 -33 -112 -93 -63 -37 -121 -67 -129 -67 -8 0 -20 7 -27 16
-11 12 -10 18 6 34 30 29 227 141 244 138 8 -2 16 -14 18 -28z m1932 -38 c97
-57 115 -72 115 -92 0 -15 -7 -26 -17 -28 -21 -4 -244 124 -252 145 -7 17 10
43 28 43 6 0 63 -31 126 -68z m-2178 -22 c-23 -19 -121 -35 -177 -28 l-30 3
24 14 c20 11 110 25 186 29 19 1 19 0 -3 -18z m2431 -1 c20 -6 37 -14 37 -20
0 -18 -161 1 -195 22 l-30 19 75 -6 c41 -3 92 -10 113 -15z m-2537 -63 c15
-12 17 -18 8 -33 -10 -15 -28 -18 -132 -21 -112 -2 -122 -1 -131 17 -8 15 -7
23 5 35 21 22 221 23 250 2z m2734 -1 c6 -8 10 -22 8 -32 -3 -16 -16 -18 -133
-18 -117 0 -130 2 -133 18 -8 39 15 47 133 47 86 0 115 -3 125 -15z m-2532
-37 c-3 -7 -19 -22 -36 -34 -36 -25 -182 -41 -223 -25 -21 9 -20 10 18 10 23
1 45 6 48 11 3 6 32 10 63 10 39 0 66 6 87 19 36 23 48 26 43 9z m2120 -7 c23
-11 59 -19 91 -19 30 -1 59 -6 64 -11 6 -6 29 -11 52 -12 39 -1 39 -1 12 -11
-18 -6 -58 -6 -118 0 -83 9 -94 13 -122 41 -36 36 -31 39 21 12z m792 -562
c56 -209 75 -426 46 -539 -21 -82 -70 -186 -128 -270 -29 -43 -48 -85 -57
-125 -7 -33 -18 -67 -23 -75 -7 -11 -8 -8 -3 10 3 14 9 41 12 60 6 32 5 34
-11 21 -20 -17 -21 -16 -60 59 -64 121 -97 326 -78 476 17 129 61 212 177 332
49 50 95 92 102 92 7 0 17 -18 23 -41z"/>
<path d="M2480 7380 c-50 -14 -90 -41 -187 -126 -54 -48 -125 -100 -158 -116
-39 -19 -50 -27 -30 -23 58 11 151 65 260 150 61 48 119 93 129 101 25 17 19
23 -14 14z"/>
<path d="M5380 7375 c0 -9 110 -86 204 -144 90 -55 168 -88 251 -106 61 -13 1
24 -150 94 -83 37 -185 89 -227 114 -43 25 -78 44 -78 42z"/>
<path d="M6080 7327 c11 -19 30 -72 41 -118 12 -46 27 -95 34 -109 l13 -25 7
28 c12 47 -23 153 -77 230 -27 38 -41 34 -18 -6z"/>
<path d="M1792 7327 c-35 -37 -53 -95 -59 -188 -7 -106 8 -119 23 -21 6 37 25
102 43 145 17 43 31 80 31 83 0 11 -19 2 -38 -19z"/>
<path d="M5575 6769 c-22 -5 -44 -15 -50 -20 -7 -8 -3 -9 15 -3 42 14 180 6
284 -15 101 -22 191 -27 214 -13 15 10 -111 39 -230 52 -100 12 -179 11 -233
-1z"/>
<path d="M2315 6745 c-38 -13 -99 -36 -135 -51 -52 -22 -81 -27 -150 -28 -47
-1 -107 2 -135 6 l-50 7 45 -16 c32 -12 80 -17 165 -17 129 0 113 -4 298 77
43 19 81 38 84 41 14 14 -57 3 -122 -19z"/>
<path d="M6805 6508 c-3 -29 -15 -108 -26 -176 -20 -129 -25 -258 -10 -281 7
-10 10 -6 15 15 14 63 25 188 32 337 7 156 2 205 -11 105z"/>
<path d="M1075 6416 c-5 -76 -4 -142 3 -183 11 -63 53 -153 72 -153 12 0 12 2
-1 37 -19 50 -49 222 -50 291 -2 129 -15 134 -24 8z"/>
<path d="M1699 6146 c-35 -40 -83 -99 -106 -129 -23 -31 -73 -77 -110 -104
-118 -82 -120 -84 -53 -52 98 48 145 83 213 164 64 75 134 182 125 191 -3 2
-34 -29 -69 -70z"/>
<path d="M6160 6131 c-1 -34 59 -118 119 -168 64 -53 197 -117 229 -111 18 4
-78 68 -160 107 -60 29 -143 103 -168 150 -11 20 -19 30 -20 22z"/>
<path d="M1539 5290 c-35 -55 -89 -141 -119 -191 -30 -50 -84 -122 -118 -160
-85 -91 -63 -89 27 4 86 87 188 226 235 322 78 156 67 167 -25 25z"/>
<path d="M7195 5244 c-33 -71 -91 -176 -129 -234 -71 -108 -109 -182 -120
-235 -4 -17 8 0 28 40 19 39 69 113 111 165 84 106 137 204 161 298 27 109 11
98 -51 -34z"/>
<path d="M6314 5322 c3 -18 17 -56 31 -85 40 -81 285 -378 285 -345 0 30 -73
133 -160 226 -60 64 -103 120 -127 167 -26 51 -34 61 -29 37z"/>
<path d="M692 5304 c55 -59 116 -162 203 -339 78 -159 106 -186 65 -64 -56
164 -204 390 -285 431 -12 6 -6 -5 17 -28z"/>
<path d="M1558 4509 c-3 -8 -11 -76 -18 -150 -20 -234 -40 -327 -85 -393 -13
-20 -20 -36 -14 -36 16 0 67 89 90 157 30 91 48 206 47 298 0 91 -10 149 -20
124z"/>
<path d="M6324 4335 c17 -298 46 -399 133 -457 43 -28 48 -21 14 17 -17 20
-38 52 -47 73 -29 67 -62 215 -78 351 -9 74 -19 137 -23 140 -3 4 -2 -52 1
-124z"/>
<path d="M786 3991 c36 -64 104 -111 310 -211 110 -54 215 -110 232 -125 46
-38 41 -8 -5 37 -57 54 -110 83 -250 138 -149 58 -213 94 -267 153 -37 41 -38
41 -20 8z"/>
<path d="M7035 3956 c-24 -37 -145 -121 -305 -212 -63 -36 -131 -79 -150 -96
l-35 -31 35 22 c19 12 82 45 140 72 201 96 231 112 274 150 44 39 71 85 64
112 -2 9 -10 4 -23 -17z"/>
<path d="M2025 3900 c3 -14 20 -83 39 -155 18 -71 46 -210 62 -307 32 -200 50
-222 41 -51 -5 116 -23 195 -89 388 -38 116 -67 181 -53 125z"/>
<path d="M2770 3395 c71 -100 119 -181 172 -293 115 -245 169 -350 189 -368
21 -19 17 -7 -51 166 -59 151 -199 385 -285 475 -26 28 -37 37 -25 20z"/>
<path d="M4969 3248 c-70 -71 -118 -140 -162 -237 -36 -80 -58 -200 -47 -256
8 -40 8 -40 9 16 3 132 55 236 259 507 40 53 8 36 -59 -30z"/>
<path d="M1261 3101 c-8 -5 36 -10 110 -13 121 -5 129 -7 323 -71 110 -37 201
-65 203 -63 8 8 -97 67 -162 92 -115 43 -228 64 -350 64 -60 0 -116 -4 -124
-9z"/>
<path d="M6410 2993 c-66 -22 -89 -25 -199 -24 -69 1 -123 0 -120 -2 2 -2 52
-12 110 -21 127 -21 178 -14 289 37 l75 35 -40 1 c-22 0 -74 -11 -115 -26z"/>
<path d="M2430 2557 c-68 -45 -256 -132 -336 -157 -39 -11 -111 -30 -160 -40
l-89 -19 75 5 c158 11 375 79 467 147 51 38 99 85 92 91 -2 1 -24 -10 -49 -27z"/>
<path d="M5434 2482 c-7 -4 12 -8 42 -9 30 -1 78 -12 111 -26 32 -14 92 -39
133 -57 73 -31 278 -85 287 -76 19 19 -441 176 -515 176 -26 0 -52 -4 -58 -8z"/>
<path d="M3057 6324 c-4 -4 -7 -83 -7 -176 l0 -168 185 0 185 0 -2 173 -3 172
-176 3 c-96 1 -178 -1 -182 -4z"/>
<path d="M3567 6323 c-4 -3 -7 -82 -7 -175 l0 -168 173 2 172 3 3 164 c2 125
-1 166 -10 173 -16 9 -322 11 -331 1z"/>
<path d="M4095 6317 c-3 -7 -4 -85 -3 -172 l3 -160 193 -3 192 -2 -2 172 -3
173 -188 3 c-147 2 -189 0 -192 -11z"/>
<path d="M4647 6324 c-4 -4 -7 -83 -7 -176 l0 -168 175 0 175 0 -2 173 -3 172
-166 3 c-91 1 -168 -1 -172 -4z"/>
<path d="M3425 5901 c-9 -28 14 -68 47 -82 25 -10 33 -9 56 8 29 21 41 68 23
86 -8 8 -11 2 -11 -21 0 -24 -6 -35 -24 -43 -35 -16 -66 3 -66 41 0 33 -15 40
-25 11z"/>
<path d="M3933 5904 c-15 -26 2 -62 39 -83 25 -14 29 -14 54 5 36 26 47 57 29
81 -13 17 -14 15 -15 -15 0 -67 -85 -66 -92 1 -3 30 -4 31 -15 11z"/>
<path d="M4495 5901 c-9 -30 11 -67 45 -81 28 -12 34 -11 58 7 29 21 41 68 23
86 -8 8 -11 4 -11 -15 0 -27 -23 -58 -41 -58 -27 0 -49 22 -49 50 0 33 -15 40
-25 11z"/>
<path d="M3050 5610 l0 -210 185 0 185 0 0 210 0 210 -185 0 -185 0 0 -210z"/>
<path d="M3560 5610 l0 -210 173 2 172 3 3 208 2 207 -175 0 -175 0 0 -210z"/>
<path d="M4094 5807 c-2 -7 -3 -100 -2 -207 l3 -195 193 -3 192 -2 0 210 0
210 -190 0 c-146 0 -192 -3 -196 -13z"/>
<path d="M4640 5610 l0 -210 175 0 175 0 0 210 0 210 -175 0 -175 0 0 -210z"/>
<path d="M3536 5392 c5 -25 2 -33 -21 -48 -34 -22 -55 -11 -72 37 -9 29 -12
31 -19 15 -11 -28 8 -69 38 -84 61 -29 133 57 83 98 -13 11 -14 8 -9 -18z"/>
<path d="M3935 5391 c-13 -43 36 -92 85 -82 40 8 69 78 40 96 -6 4 -10 -7 -10
-25 0 -22 -6 -33 -24 -41 -35 -16 -66 3 -66 41 0 33 -15 40 -25 11z"/>
<path d="M4496 5394 c-11 -27 5 -64 35 -79 29 -16 53 -12 82 13 18 16 23 67 7
77 -6 3 -10 -5 -10 -19 0 -25 -23 -56 -41 -56 -27 0 -49 22 -49 50 0 32 -14
40 -24 14z"/>
<path d="M3560 5150 l0 -180 175 0 175 0 0 180 0 180 -175 0 -175 0 0 -180z"/>
<path d="M4090 5150 l0 -180 195 0 195 0 0 180 0 180 -195 0 -195 0 0 -180z"/>
<path d="M3425 4927 c-9 -34 15 -74 50 -83 27 -7 72 16 82 42 7 19 -5 64 -17
64 -6 0 -8 -11 -4 -24 10 -40 -38 -70 -74 -47 -8 5 -17 24 -22 42 l-7 34 -8
-28z"/>
<path d="M3933 4935 c-15 -27 7 -80 37 -90 56 -18 109 34 87 85 l-11 25 -4
-30 c-5 -39 -19 -55 -47 -55 -28 0 -42 17 -47 55 -3 28 -4 29 -15 10z"/>
<path d="M4504 4937 c-37 -63 54 -129 106 -77 21 21 27 74 10 85 -6 4 -10 -6
-10 -22 0 -35 -16 -53 -46 -53 -27 0 -41 17 -46 55 -3 27 -4 28 -14 12z"/>
<path d="M3560 4670 l0 -190 173 2 172 3 3 188 2 187 -175 0 -175 0 0 -190z"/>
<path d="M4092 4673 l3 -188 190 0 190 0 3 188 2 187 -195 0 -195 0 2 -187z"/>
<path d="M3425 4437 c-9 -34 15 -74 50 -83 47 -12 99 46 81 91 -9 24 -24 17
-19 -8 5 -27 -19 -57 -45 -57 -28 0 -44 16 -52 51 l-7 34 -8 -28z"/>
<path d="M3934 4446 c-17 -28 2 -75 34 -87 56 -22 120 43 87 88 -13 17 -14 16
-15 -12 0 -37 -16 -55 -46 -55 -27 0 -41 17 -46 55 -3 27 -4 28 -14 11z"/>
<path d="M4503 4445 c-16 -29 7 -80 41 -89 26 -6 64 7 78 28 11 16 10 64 -2
71 -6 4 -10 -6 -10 -22 0 -35 -16 -53 -46 -53 -27 0 -41 17 -46 55 -3 28 -4
29 -15 10z"/>
<path d="M5766 3733 c-61 -250 -81 -457 -52 -528 19 -44 30 -45 21 -4 -9 40
20 354 46 513 11 65 18 120 16 123 -3 2 -16 -45 -31 -104z"/>
</g>
</svg>
