<?xml version="1.0" encoding="utf-8"?>
<!-- Generator: Adobe Illustrator 22.1.0, SVG Export Plug-In . SVG Version: 6.00 Build 0)  -->
<svg version="1.1" xmlns="http://www.w3.org/2000/svg" xmlns:xlink="http://www.w3.org/1999/xlink" x="0px" y="0px"
	 viewBox="0 0 405.4 403.1" style="enable-background:new 0 0 405.4 403.1;" xml:space="preserve">
<style type="text/css">
	.st0{fill:#C1261A;}
	.st1{stroke:#000000;stroke-miterlimit:10;}
	.st2{fill:none;stroke:#000000;stroke-width:3;stroke-miterlimit:10;}
	.st3{fill:#E7CD00;stroke:#000000;stroke-miterlimit:10;}
	.st4{fill:#965B05;}
	.st5{fill:#E7CD00;stroke:#000000;stroke-width:0.9129;stroke-miterlimit:10;}
	.st6{fill:#E7CD00;stroke:#000000;stroke-width:1.0407;stroke-miterlimit:10;}
	.st7{fill:#E7CD00;stroke:#000000;stroke-width:0.9379;stroke-miterlimit:10;}
	.st8{fill:#E7CD00;stroke:#000000;stroke-width:1.0581;stroke-linecap:round;stroke-miterlimit:10;}
	.st9{fill:#E7CD00;stroke:#000000;stroke-width:1.0946;stroke-linecap:round;stroke-miterlimit:10;}
	.st10{fill:#E7CD00;stroke:#000000;stroke-width:0.9153;stroke-miterlimit:10;}
	.st11{fill:#E7CD00;stroke:#000000;stroke-width:0.8039;stroke-miterlimit:10;}
	.st12{fill:#E7CD00;stroke:#000000;stroke-width:0.9846;stroke-miterlimit:10;}
	.st13{fill:#E7CD00;stroke:#000000;stroke-width:0.7937;stroke-miterlimit:10;}
	.st14{fill:#E7CD00;stroke:#000000;stroke-width:0.7997;stroke-miterlimit:10;}
	.st15{fill:#E7CD00;}
	.st16{fill:#E7CD00;stroke:#000000;stroke-linecap:round;stroke-miterlimit:10;}
	.st17{fill:#E7CD00;stroke:#000000;stroke-width:0.9863;stroke-linecap:round;stroke-miterlimit:10;}
</style>
<g id="Layer_2">
	<path class="st0" d="M202.5,1.5H2.9C2.8,22.1,3.3,41,2.9,60.7c-4.3,177.5-12.1,277,199.6,340.8V1.5z"/>
	<path class="st1" d="M402.5,1.5h-200v400h0c0.1,0,0.1-0.1,0.2-0.1c0.1,0,0.1,0.1,0.2,0.1c211.7-63.8,203.9-162.3,199.6-339.8
		C402.3,42,402.5,24,402.5,1.5z"/>
	<path class="st2" d="M402.5,61.7c-0.2-19.7,0-37.7,0-60.2H2.9C2.8,22.1,3.3,41,2.9,60.7c-4.3,177.5-12.1,277,199.6,340.8
		c0.1,0,0.1-0.1,0.2-0.1c0.1,0,0.1,0.1,0.2,0.1C414.6,337.7,406.8,239.2,402.5,61.7z"/>
</g>
<g id="Layer_4">
	<path class="st3" d="M334.2,210.4c0.6-1.3,1.2-2.6,1.8-3.9c4.6-10.7,8-22,9.7-33.5c3.6-2.6,11.4-9,15.6-17
		c5.6-10.6,4.8-29.3,4.8-29.3s-10.1,9.1-15.7,19.7c-1.3,2.4-2.3,4.8-3.2,7c0-10.6-1.3-21.3-3.7-31.6l-1.3-5.2
		c-0.5-1.7-1.1-3.4-1.6-5.1c-0.3-1.1-0.7-2.2-1.1-3.3c2.6-3.5,6.7-9.9,8-16.6c1.9-10.2-5.8-23.2-5.8-23.2s-4.6,7.7-6.6,17.9
		c-0.6,3.2-0.9,6.2-0.9,8.9c-0.6-1.2-1.2-2.4-1.8-3.6c-0.4-0.8-0.8-1.6-1.2-2.4l-1.3-2.3c-0.9-1.5-1.7-3.1-2.7-4.6
		c-3.7-6.1-8-11.9-12.5-17.4c-1-1.1-2-2.2-3-3.3c-0.1-0.6-0.2-1.1-0.3-1.7c0.7-2.7,2.4-10.4,1-17.3c-1.8-8.4-11.5-16.1-11.5-16.1
		s-0.9,7.4,0.9,15.9c1.6,7.6,4.6,12.9,6.7,15.8c-2.8-2.8-5.6-5.6-8.6-8.2c-2.6-3.7-8.3-10.6-15.4-14.5c-9.9-5.4-24.1-7.6-24.1-7.6
		s4.9,12.6,14.8,18c9.8,5.3,18.1,6.7,22.7,6.8c4.8,4.6,9.5,9.5,13.6,14.7c0.3,0.4,0.7,0.8,1,1.3c-0.3,0-0.6-0.1-0.9-0.1
		c-3.2-2.3-11.2-7.2-19.2-7.8c-10.4-0.7-23.3,3.7-23.3,3.7s8.9,10.4,19.3,11.1c12.3,0.9,20.8-3.1,23.7-5c0.8,0.1,1.5,0.2,2.2,0.4
		c0.1,0.2,0.3,0.4,0.4,0.6l1.6,2.1l1.5,2.2c1,1.4,2,2.8,2.9,4.3l2.7,4.4c0.9,1.5,1.7,3,2.5,4.5l1.2,2.3c0.4,0.8,0.7,1.6,1.1,2.3
		c0.7,1.6,1.5,3.1,2.2,4.7l2,4.8l0.5,1.2l0.4,1.2l0.9,2.4c0.6,1.6,1.2,3.3,1.6,4.9c0.5,1.7,1,3.3,1.4,5l0.4,1.9
		c-1.2-1-2.6-2.1-4-3.2c-1.4-3.7-5.1-11.8-11-16.8c-7.9-6.7-20.4-11.1-20.4-11.1s1.5,12.8,9.4,19.5c9.3,7.9,18.1,10.1,21.4,10.4
		c1.9,1.4,3.9,3,5.4,4.5c2.9,13.4,3.7,27.3,2.3,40.9c-0.1,1.4-0.3,2.8-0.5,4.2c-0.6-1-1.3-2-2.1-3.1c-0.5-3.9-2.3-13.7-7.4-21
		c-6.4-9.3-18.1-17.7-18.1-17.7s-1.3,13.5,5.1,22.8c7.2,10.5,15.2,15.5,18.7,17.1c1.1,1.6,2.3,3.4,3.2,4.9
		c-1.8,11.2-5.2,22.1-9.8,32.4c-0.8,1.9-1.8,3.7-2.7,5.5c0.9-4.7,1.5-10.4,0.5-15.8c-2.3-11.5-10.6-24.2-10.6-24.2s-8,12.6-5.8,24.1
		c2.6,12.9,8.5,20.9,11.5,23.9c-9.2,15.4-21.5,29-35.7,39.9c0.5-1.8,1.1-4.3,1.5-7.1c3.4-4.4,8.6-12.1,9.4-20.1
		c1.3-12.2-4-27.6-4-27.6s-14.1,9.7-15.4,21.9c-2.1,18.7,6.8,30.5,6.9,29.4c0,0,0.2-0.2,0.6-0.6c-0.4,1.8-0.8,3.4-1.2,4.5l0.3,0.1
		c-0.2,0-0.4,0.1-0.6,0.1l0.3,1c-2.8,2.1-5.7,4-8.6,5.9c-5.8,3.7-11.9,6.8-18.1,9.6c-6.2,2.8-12.7,5-19.3,6.7
		c-1.4,0.4-2.9,0.7-4.4,1.1c0.2-0.6,0.4-1.2,0.7-1.8c0.2,0.4,0.4,0.6,0.5,0.5c0,0,17.2-8.7,22.7-21.7c5.5-13.1,4-32.2,4-32.2
		s-20.1,5.6-25.6,18.7c-6,14.2-4.3,26.6-2.6,32.2c-0.8,1.7-1.5,3.4-1.8,4.9c-1.1,0.2-2.3,0.5-3.4,0.7c-3.4,0.5-6.7,1.1-10.1,1.3
		l-2.5,0.2c-0.8,0.1-1.7,0.1-2.5,0.1c-1.7,0-3.4,0.2-5.1,0.1l-5.1-0.1c-1.7-0.1-3.4-0.2-5.1-0.3c-12.4-0.9-24.6-3.2-36.5-6.7
		c-0.2-0.7-0.4-1.4-0.6-2.1c1.8-4.1,5-17.9-1.8-34.1c-5.5-13.1-25.6-18.7-25.6-18.7s-1.6,19.1,3.9,32.2
		c4.7,11.1,17.7,19.1,21.6,21.2c0.1,0.3,0.2,0.5,0.2,0.8c-13.6-4.3-26.8-10.3-39-17.7c-3-1.8-5.8-3.7-8.6-5.7c-0.7-0.5-1.4-1-2-1.5
		c-0.3-1.5-0.5-3.1-0.7-4.8c2.4-3.4,7.4-13.7,5.8-28.2c-1.3-12.2-15.4-21.9-15.4-21.9s-5.4,15.4-4.1,27.5c1.1,10.2,9.1,20,11.7,22.9
		c0.1,1,0.2,1.9,0.4,2.8c-1.3-1-2.6-2-3.9-3c-2.7-2.1-5.2-4.5-7.8-6.7c-2.5-2.4-5-4.7-7.3-7.3c-2.4-2.5-4.6-5.1-6.8-7.7l-3.2-4.1
		c-1.1-1.3-2-2.8-3-4.2c-0.4-0.6-0.8-1.2-1.2-1.8c3.2-3.7,8.1-11.2,10.4-22.6C87,181.6,79,169,79,169s-8.3,12.7-10.7,24.2
		c-0.8,4.1-0.7,8.5-0.1,12.5c-1.1-2-2.1-3.9-3-6c-0.8-1.5-1.4-3.1-2.1-4.7c-0.7-1.6-1.4-3.2-1.9-4.8c-0.6-1.6-1.2-3.2-1.7-4.9
		l-1.4-5c-0.8-3-1.4-6-2-9.1c1-1.6,2.2-3.5,3.4-5.2c3.5-1.6,11.5-6.6,18.8-17.1c6.4-9.3,5.2-22.8,5.2-22.8s-11.7,8.4-18.1,17.6
		c-5.1,7.3-6.9,17.1-7.4,21c-0.8,1.2-1.6,2.3-2.3,3.4c-0.4-2.7-0.8-5.5-1-8.2c-0.9-12.3,0-24.7,2.7-36.8c1.6-1.6,3.8-3.3,5.8-4.8
		c3.3-0.3,12.1-2.5,21.4-10.4c7.9-6.7,9.5-19.5,9.5-19.5s-12.6,4.4-20.5,11c-6,5-9.6,13.1-11.1,16.8c-1.5,1.1-3,2.3-4.3,3.4
		c0.1-0.3,0.1-0.5,0.2-0.8l0.6-2.5l0.8-2.5c0.5-1.7,1-3.3,1.5-5c1.2-3.2,2.3-6.5,3.8-9.7c1.3-3.2,2.9-6.3,4.4-9.4
		c0.8-1.5,1.7-3,2.5-4.5l1.3-2.3l1.4-2.2c2.2-3.5,4.5-6.9,7-10.2c0.7-0.1,1.5-0.3,2.4-0.4c2.9,1.9,11.4,5.9,23.7,5
		c10.4-0.7,19.3-11.1,19.3-11.1s-12.8-4.5-23.3-3.8c-8,0.5-16,5.5-19.2,7.7c-0.4,0.1-0.8,0.1-1.1,0.2c4.5-5.7,9.5-11,14.8-16
		c4.5-0.1,13-1.5,22.8-6.8c9.9-5.4,14.9-18,14.9-18s-14.2,2.2-24.1,7.6c-7.2,3.9-12.9,11-15.5,14.6c-3,2.6-5.9,5.4-8.7,8.3
		c2.2-2.9,5.2-8.2,6.9-16c1.8-8.4,1-15.9,1-15.9s-9.7,7.6-11.5,16.1c-1.5,6.8,0.2,14.5,0.9,17.3c-0.1,0.7-0.2,1.3-0.4,1.9
		c-9.1,10.1-16.7,21.6-22.5,34c0-2.8-0.3-6-0.9-9.4c-1.9-10.2-6.5-17.9-6.5-17.9s-7.7,13-5.9,23.2c1.3,6.8,5.5,13.3,8.1,16.8
		c-1.1,3.2-2.2,6.4-3,9.7c-3.2,11.7-4.8,23.8-4.7,35.9c-0.9-2.4-2-5-3.5-7.7C40.1,135.5,30,126.3,30,126.3s-0.9,18.7,4.7,29.3
		c4.4,8.3,12.7,14.9,16,17.3c0.5,3,1.1,6,1.8,8.9l1.4,5.2c0.5,1.7,1.1,3.4,1.7,5.1c0.5,1.7,1.2,3.4,1.9,5.1c0.7,1.7,1.3,3.4,2.1,5
		c1.6,3.7,3.5,7.4,5.5,10.9c-3.2-3.2-6.8-6.1-10.4-7.4c-11-4.1-21.3-12.1-21.3-12.1s4,24.7,14,29.4c12.8,6,23.6,5.4,27.3,4.6
		l1.7,2.3c2.3,2.8,4.5,5.6,7,8.2c2.4,2.7,5,5.2,7.5,7.8c2.7,2.4,5.3,4.9,8.1,7.2c1.5,1.3,3.1,2.5,4.6,3.7c-0.6,0-1.1,0-1.7,0
		c-2.7-2.6-11.2-8.6-25.1-10.5c-11.6-1.6-22.1-0.2-22.1-0.2s11.6,14.9,23.3,16.5c9,1.2,18.8-2.2,22.9-3.8c2,0,3.9,0.1,5.6,0.2
		c0.3,0.3,0.7,0.5,1,0.8c3,2.1,5.9,4.2,8.9,6c3,2,6.2,3.7,9.3,5.5c0.3,0.2,0.7,0.4,1,0.5c-5.6-1-12.5-1.5-18.5,0.4
		c-12.4,4.1-24.7,16.5-24.7,16.5s15.9,10.2,28.3,6.1c14.5-4.7,22.1-14.2,24.5-18.3c3,1.4,6,2.6,9,3.9c3.4,1.3,6.7,2.6,10.2,3.7
		c3.4,1.2,6.9,2.1,10.3,3.1c1.7,0.5,3.5,0.9,5.2,1.3c0.9,0.2,1.7,0.4,2.6,0.6l2.6,0.5c1.4,0.3,2.7,0.5,4.1,0.8
		c-8,1-17.6,2.1-20.1,2.5c-4.5,0.7-18.2,3.3-23.2,7.3c-5,4-9.8,14-9.8,14s10.2-6,16.9-8.7c6.7-2.7,15.3-2,22.4-3.9
		c7.1-1.9,25.8-9.4,25.8-9.4v-0.1c1.8,0.2,3.6,0.4,5.4,0.5c1.8,0.1,3.6,0.3,5.4,0.3l2.4,0c5,2,18.1,7.1,23.8,8.7
		c7.1,2,15.7,1.3,22.4,4c6.7,2.7,16.9,8.7,16.9,8.7s-4.8-10-9.8-14c-5-4-18.7-6.7-23.2-7.4c-1.4-0.2-5.2-0.7-9.6-1.2
		c1.4-0.2,2.9-0.4,4.3-0.6c3.6-0.7,7.1-1.4,10.6-2.4c7.5-1.9,14.8-4.6,21.8-7.8c3.9,4.6,10.8,10.6,21.4,14.1
		c12.4,4.1,28.3-6.1,28.3-6.1s-12.3-12.5-24.7-16.6c-2.2-0.7-4.6-1.1-7-1.3c5.5-3.5,10.8-7.4,15.8-11.7c4.6,1.7,13.4,4.4,21.5,3.3
		c11.6-1.6,23.3-16.4,23.3-16.4s-10.5-1.4-22.1,0.1c-4.5,0.6-8.5,1.7-11.9,2.9c6.3-6.5,12-13.6,17-21.1c5,0.4,14.1-0.1,24.5-4.9
		c10-4.7,14.1-29.4,14.1-29.4s-10.3,7.9-21.3,12C338.8,207,336.5,208.5,334.2,210.4z"/>
	<path class="st4" d="M54.6,76.9c0.2,2,0.2,4,0.3,5.9c0.1,2,0.2,3.9,0.5,5.9c0.2,1.9,0.7,3.8,1.1,5.6c0.4,1.9,0.9,3.6,1.6,5.5
		l-0.2,0.1c-1.7-1.3-2.7-3.2-3.4-5.1c-0.7-2-0.7-4-0.8-6c-0.1-2,0-4,0.1-6l0.5-5.9H54.6z"/>
	<path class="st4" d="M32.6,136.3c2.3,1.4,4.3,3.4,6,5.4c1.7,2.1,3.2,4.4,4.6,6.7c1.4,2.3,2.8,4.7,3.7,7.2c1,2.5,1.8,5.1,2.3,7.8
		l-0.2,0.1c-1.5-2.3-2.7-4.6-3.9-7c-1.2-2.4-2.1-4.9-3.3-7.2c-1.2-2.4-2.5-4.7-4-6.9c-1.5-2.2-3.2-4.2-5.3-5.9L32.6,136.3z"/>
	<path class="st4" d="M38.6,202.3c1.4,2.6,3.7,4.6,6.2,6.1c2.5,1.5,5.3,2.6,8.1,3.7c2.8,1.1,5.7,2,8.4,3.5c2.7,1.5,5.2,3.4,6.9,6
		l0.1,0.1l0,0.1c0,0.3-0.1,0.7-0.2,1h-0.2c-0.1-0.3-0.1-0.7-0.2-1l0.1,0.2c-2.3-1.9-4.8-3.3-7.5-4.6c-2.6-1.3-5.3-2.6-8-3.8
		c-2.7-1.3-5.5-2.6-8-4.3c-2.5-1.8-4.7-4.1-5.9-6.9L38.6,202.3z"/>
	<path class="st4" d="M61,248.8c2.9-0.1,5.9-0.4,8.9-0.5c1.5,0,3,0,4.5,0.2c1.5,0.1,3,0.5,4.4,0.8c2.9,0.7,5.8,1.3,8.6,2.5
		c1.4,0.6,2.8,1.2,4.1,1.9c1.3,0.7,2.6,1.6,3.7,2.7l-0.1,0.2c-2.7-1.2-5.5-2-8.3-2.9c-2.8-0.8-5.5-1.9-8.3-2.8
		c-1.4-0.4-2.8-0.8-4.2-1.1c-1.4-0.3-2.9-0.4-4.3-0.5c-2.9-0.2-5.9-0.1-8.8-0.3V248.8z"/>
	<path class="st4" d="M91,286.8c3-0.3,6-0.8,8.9-1.5c2.9-0.7,5.8-1.5,8.6-2.6c2.8-1.1,5.5-2.5,8.1-3.8c2.7-1.3,5.2-2.8,7.7-4.6
		l0.1,0.1c-1.8,2.6-4.3,4.6-6.9,6.2c-2.7,1.6-5.6,2.6-8.6,3.5c-2.9,0.9-5.9,1.6-9,2.1c-3,0.5-6.1,0.7-9.1,0.7L91,286.8z"/>
	<path class="st4" d="M100.6,205.8c1.1,2.8,2.2,5.7,3.2,8.6c1,2.9,1.9,5.8,2.7,8.7c0.8,2.9,1.7,5.9,2,9c0.3,3.1,0.3,6.2-0.4,9.2
		l-0.2,0c-0.4-3-0.9-6-1.4-8.9c-0.6-2.9-0.9-5.9-1.5-8.9c-0.6-3-1.3-5.9-2.1-8.8c-0.8-2.9-1.6-5.9-2.4-8.8L100.6,205.8z"/>
	<path class="st4" d="M137.1,232.3c2.6,2.3,4.9,5,6.9,7.8c2,2.9,3.7,5.9,5.4,9c1.6,3.1,3.3,6.2,4.6,9.4c1.3,3.2,2.5,6.4,3.7,9.8
		l-0.2,0.1c-2.1-2.8-3.8-5.9-5.3-9c-1.6-3.1-2.7-6.4-4.2-9.5c-1.4-3.1-3-6.2-4.8-9.2c-1.8-3-3.8-5.8-6.2-8.2L137.1,232.3z"/>
	<path class="st4" d="M238.9,269.9c-1-2.9-1.1-6.1-0.6-9.2c0.5-3.1,1.6-6,3-8.8c1.4-2.8,2.9-5.5,4.9-7.8c2-2.3,4.2-4.5,6.7-6.3
		l0.1,0.1c-1.7,2.6-3.6,4.9-5.3,7.4c-1.7,2.4-3.6,4.8-5.1,7.4c-1.5,2.6-2.7,5.3-3.4,8.2c-0.7,2.9-0.9,6-0.2,8.9L238.9,269.9z"/>
	<path class="st4" d="M270.5,280.3c2.5-1.1,5.4-1,8-0.4c2.7,0.6,5.2,1.7,7.6,2.7c2.5,0.9,5.1,1.3,7.6,2.2c2.5,0.9,5.1,1.8,7.3,3.5
		l-0.1,0.2c-2.6-0.7-5.2-1.1-7.8-1.8c-2.6-0.6-5.1-1.6-7.7-2.6c-2.5-1.2-4.8-2.4-7.3-3.2c-2.5-0.8-5.2-1.2-7.7-0.4L270.5,280.3z"/>
	<path class="st4" d="M303.5,255.3c2.1-0.3,4.3,0,6.4,0.2c2.1,0.2,4.2,0.4,6.2,0.1c2-0.3,3.8-1.2,5.9-1.8c2-0.6,4.2-1.3,6.5-1l0,0.2
		c-2,0.8-3.8,1.8-5.8,2.7c-1.9,0.9-4.2,1.4-6.4,1.5c-2.3,0.1-4.4-0.3-6.5-0.7c-2.1-0.5-4.2-0.9-6.3-1L303.5,255.3z"/>
	<path class="st4" d="M290.1,211.4c0,3-0.7,5.9-1.2,8.7c-0.3,1.4-0.5,2.9-0.6,4.3c0,0.7-0.1,1.4-0.1,2.2c-0.1,0.7-0.1,1.5-0.2,2.2
		c-0.3,2.9-0.5,5.8-0.9,8.7c-0.2,1.4-0.3,2.8-0.3,4.2c0,1.4,0.1,2.8,0.8,4.1l-0.2,0.1c-1.2-1-1.7-2.6-2-4.1c-0.3-1.5-0.3-3-0.3-4.5
		c0.1-3,0.8-5.9,1.3-8.8c0.1-0.7,0.2-1.4,0.3-2.1c0.1-0.7,0.2-1.4,0.3-2.2c0.2-1.5,0.6-2.9,0.9-4.4c0.8-2.8,1.7-5.6,2-8.5
		L290.1,211.4z"/>
	<path class="st4" d="M327.4,223.3c0.9-1.1,2-2,3.1-2.8c1.1-0.8,2.3-1.6,3.5-2.3c2.4-1.4,4.9-2.7,7.3-4.1c2.4-1.4,4.7-2.9,6.9-4.4
		c2.2-1.5,4.3-3.2,5.2-5.8l0.2,0c0.1,1.4-0.4,2.9-1.2,4.2c-0.8,1.3-1.9,2.3-3,3.2c-2.2,1.9-4.8,3-7.4,4.2c-2.5,1.2-5.1,2.3-7.5,3.5
		c-2.5,1.2-5,2.5-6.9,4.4L327.4,223.3z"/>
	<path class="st4" d="M316.1,178.4c0.8,2.9,1,5.9,1.4,8.8c0.3,2.9,0.7,5.9,1.2,8.8c0.5,2.9,1.4,5.7,2.3,8.3c1,2.6,2.4,5.1,5,6.6
		L326,211c-1.5-0.2-3-1-4.1-2.1c-1.2-1.1-2-2.5-2.7-3.9c-1.3-2.8-1.7-5.9-2-8.9c-0.3-3-0.5-6-0.6-8.9c-0.1-3-0.1-5.9-0.6-8.8
		L316.1,178.4z"/>
	<path class="st4" d="M347.4,166.9c0.2-3,1.4-6,2.9-8.6c1.6-2.6,3.5-5,5.1-7.5c1.6-2.5,2.8-5.2,4.1-7.8c1.3-2.7,2.4-5.4,3.9-8.1
		l0.2,0.1c-0.4,3-1.2,6-2.2,8.9c-1.1,2.9-2.7,5.5-4.6,8c-1.9,2.4-3.9,4.7-5.6,7.1c-1.7,2.4-3.1,5.1-3.6,8.1L347.4,166.9z"/>
	<path class="st4" d="M316.1,134.4c-0.1,2.6,0.9,4.9,2.3,7c1.4,2.1,3,4,4.8,5.9c1.7,1.9,3.7,3.6,5.2,5.6c0.8,1,1.5,2.1,2.2,3.3
		c0.6,1.1,1.2,2.4,1.5,3.7l-0.2,0.1c-1.5-2.1-3.3-3.9-5-5.7c-1.7-1.8-3.3-3.9-4.9-5.9c-1.6-2-3.2-4.1-4.4-6.4
		c-1.2-2.3-2.1-5-1.6-7.6L316.1,134.4z"/>
	<path class="st4" d="M341.1,74.9c0.1,2.3,0.1,4.5,0.1,6.8c-0.1,2.3-0.2,4.5-0.4,6.8c-0.2,2.3-0.1,4.5-0.5,6.7
		c-0.3,2.2-0.6,4.4-1.2,6.7h-0.2c-0.6-2.3-0.6-4.6-0.6-6.8c0-2.3,0.5-4.5,0.9-6.7c0.3-2.2,0.7-4.5,1-6.7c0.3-2.2,0.6-4.5,0.7-6.7
		L341.1,74.9z"/>
	<path class="st4" d="M71,207.8c2.1-1.7,3.1-4.2,3.9-6.7c0.8-2.5,1.3-5.1,1.6-7.8c0.3-2.6,0.3-5.3,0.6-7.9c0.3-2.6,0.5-5.3,0.9-8
		l0.2,0c0.8,2.6,0.9,5.4,0.9,8.1c0,2.7-0.5,5.4-1,8.1c-0.5,2.7-1.2,5.3-2.2,7.9c-0.5,1.3-1.1,2.5-1.9,3.6c-0.7,1.1-1.7,2.2-2.9,2.9
		L71,207.8z"/>
	<path class="st4" d="M61.4,160.8c2.1-1.8,4-3.9,5.7-6.1c1.7-2.2,3.3-4.5,4.7-6.8c1.5-2.4,2.7-4.9,4.2-7.2c1.5-2.3,3-4.7,4.8-6.9
		l0.2,0.1c-0.8,2.7-2,5.3-3.3,7.8c-1.3,2.5-3,4.8-4.6,7.1c-1.7,2.3-3.4,4.5-5.3,6.6c-1.9,2.1-4,4-6.3,5.6L61.4,160.8z"/>
	<path class="st4" d="M67.5,112.8c1.9-1.6,4.1-2.9,6.1-4.3c2-1.4,4-2.9,5.5-4.7c0.4-0.5,0.7-0.9,1.1-1.4l1.1-1.6
		c0.7-1,1.5-2,2.3-2.9c1.6-1.9,3.3-3.6,5-5.5l0.2,0.1C87.8,94.9,86.4,97,85,99c-0.7,1-1.5,2-2.3,2.9c-0.4,0.5-0.8,0.9-1.2,1.4
		c-0.4,0.5-0.8,1-1.3,1.5c-1.8,1.9-3.9,3.3-6.1,4.5c-2.2,1.2-4.4,2.3-6.5,3.6L67.5,112.8z"/>
	<path class="st4" d="M91,69.3c2.7,0.5,5.3,1,8,1.2c2.7,0.2,5.3,0,7.9-0.7c2.5-0.7,4.8-2,7.4-3c2.5-1,5.4-1.8,8.2-1.5l0,0.2
		c-2.6,0.8-5,1.9-7.4,3.1c-2.4,1.2-5.1,2.2-7.8,2.7c-2.8,0.6-5.6,0.5-8.3,0.1c-2.7-0.4-5.4-1.1-8-2L91,69.3z"/>
	<path class="st4" d="M103,47.8c2.2-0.2,4.3-1.1,6.2-2.3c1.9-1.2,3.5-2.7,5.2-4.2c1.7-1.5,3.2-3.2,5.1-4.5c1.9-1.3,4.1-2.4,6.5-2.6
		l0.1,0.2c-2,1.2-3.6,2.6-5.3,4c-1.7,1.4-3.5,2.7-5.3,4.1c-1.8,1.4-3.7,2.7-5.7,3.8c-2.1,1-4.4,1.8-6.7,1.6L103,47.8z"/>
	<path class="st4" d="M86.9,51.4c-0.2-1.4-0.2-2.8-0.2-4.2c0-1.4,0.1-2.8,0.4-4.2c0.3-1.4,0.5-2.9,1.3-4.1c0.8-1.2,1.8-2.3,3.1-3.1
		l0.2,0.1c-0.4,1.4-1,2.6-1.4,3.8c-0.5,1.2-1.1,2.3-1.5,3.6c-0.4,1.3-0.7,2.6-0.9,3.9c-0.2,1.3-0.4,2.7-0.6,4.1L86.9,51.4z"/>
	<path class="st4" d="M276,66.3c2.1-1,4.4-1.5,6.7-1.6c2.3-0.1,4.6,0,6.9,0.3c2.3,0.2,4.6,0.4,6.8,0.9c2.2,0.5,4.4,1,6.6,1.5l0,0.2
		c-2.3,0.6-4.7,0.5-6.9,0.3c-2.3-0.2-4.5-0.9-6.7-1.3c-2.2-0.4-4.4-0.8-6.7-0.8c-2.2-0.1-4.5,0.1-6.6,0.8L276,66.3z"/>
	<path class="st4" d="M308.1,95.8c0.7,1.9,1.8,3.7,3.1,5.2c1.3,1.5,3,2.7,4.7,3.8c1.7,1.1,3.7,1.8,5.4,2.8c1.8,1,3.6,2.1,5.2,3.6
		l-0.1,0.2c-2.1-0.5-4-1.2-6-2c-1.9-0.8-3.7-2-5.4-3.3c-1.7-1.3-3.3-2.7-4.6-4.5c-1.2-1.8-2.1-3.7-2.5-5.8L308.1,95.8z"/>
	<path class="st4" d="M302.6,34.8c1.4,0.6,2.3,1.8,3.1,2.9c0.8,1.2,1.4,2.5,2,3.8c0.5,1.3,1.2,2.6,1.3,4c0.2,1.4,0.2,2.9-0.3,4.3
		l-0.2,0c-0.6-1.3-1-2.6-1.4-3.9c-0.4-1.3-0.5-2.6-0.9-4c-0.3-1.3-0.8-2.6-1.3-3.8c-0.5-1.2-1.2-2.4-2.3-3.2L302.6,34.8z"/>
	<path class="st4" d="M268.1,33.8c2,1.4,4,2.6,6.1,3.8c2.1,1.2,4.2,2.3,6.4,3.3c2.2,1,4.4,1.9,6.5,2.9c2.1,1.1,4.3,2.1,6.4,3.4
		l-0.1,0.2c-2.5-0.2-4.8-0.9-7.1-1.8c-2.3-0.8-4.4-2.1-6.5-3.4c-4.2-2.4-8.3-5.2-11.9-8.4L268.1,33.8z"/>
</g>
<g id="Layer_6">
	<g>
		<g>
			<path class="st5" d="M239.6,144.7l4.4-4.4c2.3-2.3,5.7-2.6,7.6-0.7l0.1,0.1c1.9,1.9,1.6,5.3-0.7,7.6l-4.4,4.4
				c-2.3,2.3-5.7,2.6-7.6,0.7l-0.1-0.1C237,150.5,237.3,147,239.6,144.7z M248.8,142.4c-0.8-0.7-2.1-0.6-3.1,0.4l-3.7,3.8
				c-1,1-1.1,2.3-0.4,3.1l0.1,0.1c0.8,0.7,2.1,0.6,3.1-0.4l3.7-3.8c1-1,1.1-2.3,0.4-3.1L248.8,142.4z"/>
		</g>
		<g>
			<path class="st5" d="M257.5,132.4l5.8-2.3c3-1.2,6.3-0.2,7.3,2.3l0.1,0.2c1,2.5-0.6,5.5-3.6,6.8l-5.8,2.3c-3,1.2-6.3,0.2-7.3-2.3
				l-0.1-0.2C252.9,136.7,254.5,133.6,257.5,132.4z M267,133.9c-0.4-1-1.7-1.4-3-0.9l-4.9,2c-1.3,0.5-1.9,1.7-1.5,2.7l0.1,0.1
				c0.4,1,1.7,1.4,3,0.9l4.9-2c1.3-0.5,1.9-1.7,1.5-2.7L267,133.9z"/>
		</g>
		<g>
			<path class="st6" d="M269.1,123.4l2.4-7c1.2-3.6,4.5-5.8,7.3-4.8l0.2,0.1c2.8,1,4.1,4.7,2.9,8.3l-2.4,7c-1.2,3.6-4.5,5.8-7.3,4.8
				l-0.2-0.1C269.2,130.7,267.9,127,269.1,123.4z M277.3,115.9c-1.1-0.4-2.4,0.5-2.9,2.1l-2,5.9c-0.5,1.5,0,3,1.1,3.4l0.2,0.1
				c1.1,0.4,2.4-0.5,2.9-2.1l2-5.9c0.5-1.5,0-3-1.1-3.4L277.3,115.9z"/>
		</g>
		<g>
			<path class="st7" d="M275.6,102.2v-6.6c0-3.4,2.2-6.2,4.9-6.2h0.2c2.7,0,4.9,2.8,4.9,6.2v6.6c0,3.4-2.2,6.2-4.9,6.2h-0.2
				C277.8,108.4,275.6,105.6,275.6,102.2z M280.6,93.5c-1.1,0-1.9,1.2-1.9,2.6v5.6c0,1.4,0.9,2.6,1.9,2.6h0.2c1.1,0,1.9-1.2,1.9-2.6
				v-5.6c0-1.4-0.9-2.6-1.9-2.6H280.6z"/>
		</g>
		<g>
			<path class="st5" d="M267.3,87.7l-4.2-4.6c-2.2-2.4-2.3-5.8-0.3-7.7l0.1-0.1c2-1.8,5.4-1.3,7.6,1.1l4.2,4.6
				c2.2,2.4,2.3,5.8,0.3,7.7l-0.1,0.1C272.9,90.6,269.5,90.1,267.3,87.7z M265.5,78.3c-0.8,0.7-0.7,2.1,0.2,3.1l3.5,3.9
				c0.9,1,2.3,1.2,3.1,0.5l0.1-0.1c0.8-0.7,0.7-2.1-0.2-3.1l-3.5-3.9c-0.9-1-2.3-1.2-3.1-0.5L265.5,78.3z"/>
		</g>
		<path class="st8" d="M246,145.1L246,145.1c0.6,1.1,2,1.6,3.1,1l11.1-5.7c1.1-0.6,1.6-2,1-3.1l0,0c-0.6-1.1-2-1.6-3.1-1l-11.1,5.7
			C245.9,142.5,245.4,143.9,246,145.1z"/>
		<path class="st8" d="M263.9,136.5L263.9,136.5c0.9,0.9,2.4,0.9,3.3,0l8.8-8.8c0.9-0.9,0.9-2.4,0-3.3l0,0c-0.9-0.9-2.4-0.9-3.3,0
			l-8.8,8.8C263,134.1,263,135.6,263.9,136.5z"/>
		<path class="st9" d="M276.3,119.4L276.3,119.4c1.2,0.3,2.5-0.4,2.9-1.6l3.7-13.2c0.3-1.2-0.4-2.5-1.6-2.9l0,0
			c-1.2-0.3-2.5,0.4-2.9,1.6l-3.7,13.2C274.3,117.7,275.1,119,276.3,119.4z"/>
		<path class="st8" d="M281.9,96.1L281.9,96.1c1-0.8,1.1-2.3,0.2-3.3l-8.2-9.4c-0.8-1-2.3-1.1-3.3-0.2v0c-1,0.8-1.1,2.3-0.2,3.3
			l8.2,9.4C279.5,96.8,281,96.9,281.9,96.1z"/>
	</g>
	<g>
		<g>
			<path class="st5" d="M162.4,152.4l-0.1,0.1c-1.9,1.9-5.3,1.6-7.6-0.7l-4.4-4.4c-2.3-2.3-2.6-5.7-0.7-7.6l0.1-0.1
				c1.9-1.9,5.3-1.6,7.6,0.7l4.4,4.4C164,147,164.3,150.5,162.4,152.4z M152.4,142.5c-0.8,0.7-0.6,2.1,0.4,3.1l3.7,3.8
				c1,1,2.3,1.1,3.1,0.4l0.1-0.1c0.8-0.7,0.6-2.1-0.4-3.1l-3.7-3.8c-1-1-2.3-1.1-3.1-0.4L152.4,142.5z"/>
		</g>
		<g>
			<path class="st5" d="M147.4,139.2l-0.1,0.2c-1,2.5-4.3,3.6-7.3,2.3l-5.8-2.3c-3-1.2-4.6-4.3-3.6-6.8l0.1-0.2
				c1-2.5,4.3-3.6,7.3-2.3l5.8,2.3C146.8,133.6,148.4,136.7,147.4,139.2z M134.3,134c-0.4,1,0.3,2.2,1.5,2.7l4.9,2
				c1.3,0.5,2.6,0.1,3-0.9l0.1-0.1c0.4-1-0.3-2.2-1.5-2.7l-4.9-2c-1.3-0.5-2.6-0.1-3,0.9L134.3,134z"/>
		</g>
		<g>
			<path class="st6" d="M129.3,131.7l-0.2,0.1c-2.8,1-6.1-1.2-7.3-4.8l-2.4-7c-1.2-3.6,0.1-7.3,2.9-8.3l0.2-0.1
				c2.8-1,6.1,1.2,7.3,4.8l2.4,7C133.4,127,132.1,130.7,129.3,131.7z M123.8,116c-1.1,0.4-1.6,1.9-1.1,3.4l2,5.9
				c0.5,1.5,1.8,2.4,2.9,2.1l0.2-0.1c1.1-0.4,1.6-1.9,1.1-3.4l-2-5.9c-0.5-1.5-1.8-2.4-2.9-2.1L123.8,116z"/>
		</g>
		<g>
			<path class="st7" d="M120.8,108.4h-0.2c-2.7,0-4.9-2.8-4.9-6.2v-6.6c0-3.4,2.2-6.2,4.9-6.2h0.2c2.7,0,4.9,2.8,4.9,6.2v6.6
				C125.7,105.6,123.5,108.4,120.8,108.4z M120.6,93.5c-1.1,0-1.9,1.2-1.9,2.6v5.6c0,1.4,0.9,2.6,1.9,2.6h0.2c1.1,0,1.9-1.2,1.9-2.6
				v-5.6c0-1.4-0.9-2.6-1.9-2.6H120.6z"/>
		</g>
		<g>
			<path class="st5" d="M126.4,88.8l-0.1-0.1c-2-1.8-1.9-5.2,0.3-7.7l4.2-4.6c2.2-2.4,5.6-2.9,7.6-1.1l0.1,0.1
				c2,1.8,1.9,5.2-0.3,7.7l-4.2,4.6C131.8,90.1,128.4,90.6,126.4,88.8z M135.7,78.2c-0.8-0.7-2.2-0.5-3.1,0.5l-3.5,3.9
				c-0.9,1-1,2.4-0.2,3.1l0.1,0.1c0.8,0.7,2.2,0.5,3.1-0.5l3.5-3.9c0.9-1,1-2.4,0.2-3.1L135.7,78.2z"/>
		</g>
		<path class="st8" d="M155.3,145.1L155.3,145.1c-0.6,1.1-2,1.6-3.1,1l-11.1-5.7c-1.1-0.6-1.6-2-1-3.1l0,0c0.6-1.1,2-1.6,3.1-1
			l11.1,5.7C155.4,142.5,155.9,143.9,155.3,145.1z"/>
		<path class="st8" d="M137.4,136.5L137.4,136.5c-0.9,0.9-2.4,0.9-3.3,0l-8.8-8.8c-0.9-0.9-0.9-2.4,0-3.3h0c0.9-0.9,2.4-0.9,3.3,0
			l8.8,8.8C138.3,134.1,138.3,135.6,137.4,136.5z"/>
		<path class="st9" d="M125,119.4L125,119.4c-1.2,0.3-2.5-0.4-2.9-1.6l-3.7-13.2c-0.3-1.2,0.4-2.5,1.6-2.9h0
			c1.2-0.3,2.5,0.4,2.9,1.6l3.7,13.2C127,117.7,126.2,119,125,119.4z"/>
		<path class="st8" d="M119.4,96.1L119.4,96.1c-1-0.8-1.1-2.3-0.2-3.3l8.2-9.4c0.8-1,2.3-1.1,3.3-0.2v0c1,0.8,1.1,2.3,0.2,3.3
			l-8.2,9.4C121.8,96.8,120.4,96.9,119.4,96.1z"/>
	</g>
	<polygon class="st3" points="158.3,204.1 145.3,220.4 145.3,204.1 145.3,83 153,83 153,204.1 	"/>
	<polygon class="st3" points="185.3,203.7 174,221 163.3,203.7 170.7,203.7 170.7,83 178.7,83 178.7,203.7 	"/>
	<polygon class="st10" points="210.7,204.1 200.7,220.4 190.3,204.1 195,204.1 195,83 205.3,83 205.3,204.1 	"/>
	<polygon class="st11" points="237.7,203.4 228.7,219.7 219,203.4 223.7,203.4 223.7,83 232.7,83 232.7,203.4 	"/>
	<polygon class="st12" points="244,204.1 256.3,220.4 256.3,83 249.3,83 249.3,204.1 	"/>
	<rect x="145.8" y="83" class="st13" width="108.5" height="5"/>
	<rect x="146" y="104" class="st11" width="106.3" height="9.3"/>
	<rect x="147.7" y="133" class="st11" width="105" height="4.7"/>
	<rect x="146.3" y="154.7" class="st14" width="106.7" height="6.7"/>
	<rect x="148.7" y="179" class="st11" width="104.3" height="6.3"/>
	<path class="st11" d="M163,85c0,0-0.5-11.8-2-15c-1.7-3.7-7.3-5.7-12-2.3c-4.7,3.3-2.3,17.7-2.3,17.7L151,86c0,0-1.3-9,0-12.3
		c1.3-3.3,5-2.7,6.3-1c1.3,1.7,0.7,12,0.7,12L163,85z"/>
	<path class="st11" d="M238.4,85c0,0,0.5-11.8,2-15c1.7-3.7,7.3-5.7,12-2.3c4.7,3.3,2.3,17.7,2.3,17.7l-4.3,0.7c0,0,1.3-9,0-12.3
		c-1.3-3.3-5-2.7-6.3-1c-1.3,1.7-0.7,12-0.7,12L238.4,85z"/>
	<path class="st11" d="M255.1,83c0.4-4.2,0.9-12.8-2.6-15.3c-4.7-3.3-10.3-1.3-12,2.3c-1.1,2.4-1.7,9.5-1.9,13h-5.9h-9h-18.3H195
		h-16.3h-8h-7.8c-0.2-3.5-0.8-10.6-1.9-13c-1.7-3.7-7.3-5.7-12-2.3c-3.5,2.5-3.1,11.1-2.6,15.3h-0.5h-0.5v121v16.3l13-16.3H153
		v-18.7h17.7v18.4h-7.3L174,221l11.3-17.3h-6.7v-18.4H195v18.7h-4.7l10.3,16.3l10-16.3h-5.3v-18.7h18.3v18H219l9.7,16.3l9-16.3h-5
		v-18h16.7v18.7H244l12.3,16.3V83H255.1z M249.3,133h-16.7v-19.7h16.7V133z M223.7,133h-18.3v-19.7h18.3V133z M195,133h-16.3v-19.7
		H195V133z M170.7,133H153v-19.7h17.7V133z M153,137.7h17.7v17H153V137.7z M178.7,137.7H195v17h-16.3V137.7z M205.3,137.7h18.3v17
		h-18.3V137.7z M232.7,137.7h16.7v17h-16.7V137.7z M244.1,72.7c1.3-1.7,5-2.3,6.3,1c0.8,2.1,0.6,6.4,0.3,9.3h-1.4h-6
		C243.2,80,243.1,74,244.1,72.7z M249.3,88v16h-16.7V88H249.3z M223.7,88v16h-18.3V88H223.7z M195,88v16h-16.3V88H195z M170.7,104
		H153V88h17.7V104z M151,73.7c1.3-3.3,5-2.7,6.3-1c1,1.2,0.9,7.3,0.8,10.3H153h-2.3C150.4,80.1,150.2,75.8,151,73.7z M153,179v-17.7
		h17.7V179H153z M178.7,179v-17.7H195V179H178.7z M205.3,179v-17.7h18.3V179H205.3z M232.7,179v-17.7h16.7V179H232.7z"/>
	<g>
		<path class="st15" d="M176.9,107.3c1.2,1.2,1.2,3.1,0,4.2c-1.2,1.2-3.1,1.2-4.2,0c-1.1-1.1-1.2-2.7-0.3-3.9"/>
		<path d="M176.9,107.3c0.5,0.3,1,0.8,1.2,1.4c0.1,0.6,0.1,1.3-0.1,1.9c-0.4,1.2-1.7,2.1-2.9,2.2c-1.3,0.1-2.6-0.6-3.2-1.8
			c-0.3-0.6-0.4-1.2-0.4-1.9c0.2-0.6,0.5-1.2,1-1.6c-0.2,0.6-0.3,1.1-0.2,1.6c0,0.5,0.1,1,0.3,1.4c0.5,0.9,1.5,1.4,2.5,1.3
			c1-0.1,1.9-0.7,2.2-1.7c0.2-0.5,0.2-1,0.1-1.5C177.3,108.4,177.2,107.8,176.9,107.3z"/>
	</g>
	<g>
		<path class="st15" d="M202,107.3c1.2,1.2,1.2,3.1,0,4.2c-1.2,1.2-3.1,1.2-4.2,0c-1.1-1.1-1.2-2.7-0.3-3.9"/>
		<path d="M202,107.3c0.5,0.3,1,0.8,1.2,1.4c0.1,0.6,0.1,1.3-0.1,1.9c-0.4,1.2-1.7,2.1-2.9,2.2c-1.3,0.1-2.6-0.6-3.2-1.8
			c-0.3-0.6-0.4-1.2-0.4-1.9c0.2-0.6,0.5-1.2,1-1.6c-0.2,0.6-0.3,1.1-0.2,1.6c0,0.5,0.1,1,0.3,1.4c0.5,0.9,1.5,1.4,2.5,1.3
			c1-0.1,1.9-0.7,2.2-1.7c0.2-0.5,0.2-1,0.1-1.5C202.5,108.4,202.3,107.8,202,107.3z"/>
	</g>
	<g>
		<path class="st15" d="M230.4,107.3c1.2,1.2,1.2,3.1,0,4.2c-1.2,1.2-3.1,1.2-4.2,0c-1.1-1.1-1.2-2.7-0.3-3.9"/>
		<path d="M230.4,107.3c0.5,0.3,1,0.8,1.2,1.4c0.1,0.6,0.1,1.3-0.1,1.9c-0.4,1.2-1.7,2.1-2.9,2.2c-1.3,0.1-2.6-0.6-3.2-1.8
			c-0.3-0.6-0.4-1.2-0.4-1.9c0.2-0.6,0.5-1.2,1-1.6c-0.2,0.6-0.3,1.1-0.2,1.6c0,0.5,0.1,1,0.3,1.4c0.5,0.9,1.5,1.4,2.5,1.3
			c1-0.1,1.9-0.7,2.2-1.7c0.2-0.5,0.2-1,0.1-1.5C230.8,108.4,230.7,107.8,230.4,107.3z"/>
	</g>
	<g>
		<path class="st15" d="M230.4,132.8c1.2,1.2,1.2,3.1,0,4.2c-1.2,1.2-3.1,1.2-4.2,0c-1.1-1.1-1.2-2.7-0.3-3.9"/>
		<path d="M230.4,132.8c0.5,0.3,1,0.8,1.2,1.4c0.1,0.6,0.1,1.3-0.1,1.9c-0.4,1.2-1.7,2.1-2.9,2.2c-1.3,0.1-2.6-0.6-3.2-1.8
			c-0.3-0.6-0.4-1.2-0.4-1.9c0.2-0.6,0.5-1.2,1-1.6c-0.2,0.6-0.3,1.1-0.2,1.6c0,0.5,0.1,1,0.3,1.4c0.5,0.9,1.5,1.4,2.5,1.3
			c1-0.1,1.9-0.7,2.2-1.7c0.2-0.5,0.2-1,0.1-1.5C230.8,133.9,230.7,133.3,230.4,132.8z"/>
	</g>
	<g>
		<path class="st15" d="M202.4,132.8c1.2,1.2,1.2,3.1,0,4.2c-1.2,1.2-3.1,1.2-4.2,0c-1.1-1.1-1.2-2.7-0.3-3.9"/>
		<path d="M202.4,132.8c0.5,0.3,1,0.8,1.2,1.4c0.1,0.6,0.1,1.3-0.1,1.9c-0.4,1.2-1.7,2.1-2.9,2.2c-1.3,0.1-2.6-0.6-3.2-1.8
			c-0.3-0.6-0.4-1.2-0.4-1.9c0.2-0.6,0.5-1.2,1-1.6c-0.2,0.6-0.3,1.1-0.2,1.6c0,0.5,0.1,1,0.3,1.4c0.5,0.9,1.5,1.4,2.5,1.3
			c1-0.1,1.9-0.7,2.2-1.7c0.2-0.5,0.2-1,0.1-1.5C202.8,133.9,202.7,133.3,202.4,132.8z"/>
	</g>
	<g>
		<path class="st15" d="M176.7,132.8c1.2,1.2,1.2,3.1,0,4.2c-1.2,1.2-3.1,1.2-4.2,0c-1.1-1.1-1.2-2.7-0.3-3.9"/>
		<path d="M176.7,132.8c0.5,0.3,1,0.8,1.2,1.4c0.1,0.6,0.1,1.3-0.1,1.9c-0.4,1.2-1.7,2.1-2.9,2.2c-1.3,0.1-2.6-0.6-3.2-1.8
			c-0.3-0.6-0.4-1.2-0.4-1.9c0.2-0.6,0.5-1.2,1-1.6c-0.2,0.6-0.3,1.1-0.2,1.6c0,0.5,0.1,1,0.3,1.4c0.5,0.9,1.5,1.4,2.5,1.3
			c1-0.1,1.9-0.7,2.2-1.7c0.2-0.5,0.2-1,0.1-1.5C177.1,133.9,177,133.3,176.7,132.8z"/>
	</g>
	<g>
		<path class="st15" d="M176.7,156c1.2,1.2,1.2,3.1,0,4.2c-1.2,1.2-3.1,1.2-4.2,0c-1.1-1.1-1.2-2.7-0.3-3.9"/>
		<path d="M176.7,156c0.5,0.3,1,0.8,1.2,1.4c0.1,0.6,0.1,1.3-0.1,1.9c-0.4,1.2-1.7,2.1-2.9,2.2c-1.3,0.1-2.6-0.6-3.2-1.8
			c-0.3-0.6-0.4-1.2-0.4-1.9c0.2-0.6,0.5-1.2,1-1.6c-0.2,0.6-0.3,1.1-0.2,1.6c0,0.5,0.1,1,0.3,1.4c0.5,0.9,1.5,1.4,2.5,1.3
			c1-0.1,1.9-0.7,2.2-1.7c0.2-0.5,0.2-1,0.1-1.5C177.1,157,177,156.5,176.7,156z"/>
	</g>
	<g>
		<path class="st15" d="M202,156c1.2,1.2,1.2,3.1,0,4.2c-1.2,1.2-3.1,1.2-4.2,0c-1.1-1.1-1.2-2.7-0.3-3.9"/>
		<path d="M202,156c0.5,0.3,1,0.8,1.2,1.4c0.1,0.6,0.1,1.3-0.1,1.9c-0.4,1.2-1.7,2.1-2.9,2.2c-1.3,0.1-2.6-0.6-3.2-1.8
			c-0.3-0.6-0.4-1.2-0.4-1.9c0.2-0.6,0.5-1.2,1-1.6c-0.2,0.6-0.3,1.1-0.2,1.6c0,0.5,0.1,1,0.3,1.4c0.5,0.9,1.5,1.4,2.5,1.3
			c1-0.1,1.9-0.7,2.2-1.7c0.2-0.5,0.2-1,0.1-1.5C202.5,157,202.3,156.5,202,156z"/>
	</g>
	<g>
		<path class="st15" d="M230.5,156c1.2,1.2,1.2,3.1,0,4.2c-1.2,1.2-3.1,1.2-4.2,0c-1.1-1.1-1.2-2.7-0.3-3.9"/>
		<path d="M230.5,156c0.5,0.3,1,0.8,1.2,1.4c0.1,0.6,0.1,1.3-0.1,1.9c-0.4,1.2-1.7,2.1-2.9,2.2c-1.3,0.1-2.6-0.6-3.2-1.8
			c-0.3-0.6-0.4-1.2-0.4-1.9c0.2-0.6,0.5-1.2,1-1.6c-0.2,0.6-0.3,1.1-0.2,1.6c0,0.5,0.1,1,0.3,1.4c0.5,0.9,1.5,1.4,2.5,1.3
			c1-0.1,1.9-0.7,2.2-1.7c0.2-0.5,0.2-1,0.1-1.5C231,157,230.8,156.5,230.5,156z"/>
	</g>
	<g>
		<path class="st15" d="M176.7,180.5c1.2,1.2,1.2,3.1,0,4.2c-1.2,1.2-3.1,1.2-4.2,0c-1.1-1.1-1.2-2.7-0.3-3.9"/>
		<path d="M176.7,180.5c0.5,0.3,1,0.8,1.2,1.4c0.1,0.6,0.1,1.3-0.1,1.9c-0.4,1.2-1.7,2.1-2.9,2.2c-1.3,0.1-2.6-0.6-3.2-1.8
			c-0.3-0.6-0.4-1.2-0.4-1.9c0.2-0.6,0.5-1.2,1-1.6c-0.2,0.6-0.3,1.1-0.2,1.6c0,0.5,0.1,1,0.3,1.4c0.5,0.9,1.5,1.4,2.5,1.3
			c1-0.1,1.9-0.7,2.2-1.7c0.2-0.5,0.2-1,0.1-1.5C177.1,181.5,177,181,176.7,180.5z"/>
	</g>
	<g>
		<path class="st15" d="M202,180.5c1.2,1.2,1.2,3.1,0,4.2c-1.2,1.2-3.1,1.2-4.2,0c-1.1-1.1-1.2-2.7-0.3-3.9"/>
		<path d="M202,180.5c0.5,0.3,1,0.8,1.2,1.4c0.1,0.6,0.1,1.3-0.1,1.9c-0.4,1.2-1.7,2.1-2.9,2.2c-1.3,0.1-2.6-0.6-3.2-1.8
			c-0.3-0.6-0.4-1.2-0.4-1.9c0.2-0.6,0.5-1.2,1-1.6c-0.2,0.6-0.3,1.1-0.2,1.6c0,0.5,0.1,1,0.3,1.4c0.5,0.9,1.5,1.4,2.5,1.3
			c1-0.1,1.9-0.7,2.2-1.7c0.2-0.5,0.2-1,0.1-1.5C202.5,181.5,202.3,181,202,180.5z"/>
	</g>
	<g>
		<path class="st15" d="M230.5,180.5c1.2,1.2,1.2,3.1,0,4.2c-1.2,1.2-3.1,1.2-4.2,0c-1.1-1.1-1.2-2.7-0.3-3.9"/>
		<path d="M230.5,180.5c0.5,0.3,1,0.8,1.2,1.4c0.1,0.6,0.1,1.3-0.1,1.9c-0.4,1.2-1.7,2.1-2.9,2.2c-1.3,0.1-2.6-0.6-3.2-1.8
			c-0.3-0.6-0.4-1.2-0.4-1.9c0.2-0.6,0.5-1.2,1-1.6c-0.2,0.6-0.3,1.1-0.2,1.6c0,0.5,0.1,1,0.3,1.4c0.5,0.9,1.5,1.4,2.5,1.3
			c1-0.1,1.9-0.7,2.2-1.7c0.2-0.5,0.2-1,0.1-1.5C231,181.5,230.8,181,230.5,180.5z"/>
	</g>
	<g>
		<path class="st16" d="M150.4,84.4h-16.7c-1.7,0-3.1-1.4-3.1-3.1v0c0-1.7,1.4-3.1,3.1-3.1h16.7c1.7,0,3.1,1.4,3.1,3.1v0
			C153.5,83,152.1,84.4,150.4,84.4z"/>
		<g>
			<path class="st5" d="M131.7,176.9l0-0.2c-0.2-2.7,2.2-5.1,5.5-5.4l6.2-0.5c3.2-0.3,6,1.7,6.3,4.4l0,0.2c0.2,2.7-2.2,5.1-5.5,5.4
				l-6.2,0.5C134.7,181.5,131.9,179.6,131.7,176.9z M145.8,175.6c-0.1-1.1-1.3-1.8-2.6-1.7l-5.3,0.4c-1.3,0.1-2.4,1.1-2.3,2.1l0,0.2
				c0.1,1.1,1.3,1.8,2.6,1.7l5.3-0.4c1.3-0.1,2.4-1.1,2.3-2.1L145.8,175.6z"/>
		</g>
		<g>
			<path class="st5" d="M153.5,172.3l-0.2-0.1c-2.4-1.2-3.2-4.6-1.7-7.5l2.8-5.6c1.5-2.9,4.6-4.2,7-3l0.2,0.1
				c2.4,1.2,3.2,4.6,1.7,7.5l-2.8,5.6C159.1,172.1,155.9,173.5,153.5,172.3z M159.8,159.6c-0.9-0.5-2.2,0.1-2.8,1.3l-2.4,4.7
				c-0.6,1.2-0.3,2.6,0.6,3.1l0.1,0.1c0.9,0.5,2.2-0.1,2.8-1.3l2.4-4.7c0.6-1.2,0.3-2.6-0.6-3.1L159.8,159.6z"/>
		</g>
		<g>
			<path class="st3" d="M117.8,189.2c-7.5,0-13.6-6.1-13.6-13.6s6.1-13.6,13.6-13.6s13.6,6.1,13.6,13.6S125.2,189.2,117.8,189.2z
				 M117.8,167c-4.7,0-8.6,3.9-8.6,8.6s3.9,8.6,8.6,8.6s8.6-3.9,8.6-8.6S122.5,167,117.8,167z"/>
		</g>
		<path class="st17" d="M124.7,176.8v-0.3c0-1.2,1-2.2,2.2-2.2h10.6c1.2,0,2.2,1,2.2,2.2v0.3c0,1.2-1,2.2-2.2,2.2h-10.6
			C125.7,179,124.7,178,124.7,176.8z"/>
		<path class="st8" d="M141.9,176.9L141.9,176.9c-0.6-1.1-0.3-2.5,0.9-3.2l10.8-6.3c1.1-0.6,2.5-0.3,3.2,0.9l0,0
			c0.6,1.1,0.3,2.5-0.9,3.2l-10.8,6.3C144,178.4,142.6,178,141.9,176.9z"/>
		<path class="st8" d="M158.5,164.5L158.5,164.5c-1.3,0-2.3-1.1-2.3-2.3v-12.5c0-1.3,1.1-2.3,2.3-2.3l0,0c1.3,0,2.3,1.1,2.3,2.3
			v12.5C160.8,163.5,159.8,164.5,158.5,164.5z"/>
	</g>
	<g>
		<path class="st16" d="M250.9,84.4h16.7c1.7,0,3.1-1.4,3.1-3.1v0c0-1.7-1.4-3.1-3.1-3.1h-16.7c-1.7,0-3.1,1.4-3.1,3.1v0
			C247.8,83,249.2,84.4,250.9,84.4z"/>
		<g>
			<path class="st5" d="M263.3,181.3l-6.2-0.5c-3.2-0.3-5.7-2.7-5.5-5.4l0-0.2c0.2-2.7,3-4.7,6.3-4.4l6.2,0.5
				c3.2,0.3,5.7,2.7,5.5,5.4l0,0.2C269.4,179.6,266.6,181.5,263.3,181.3z M255.5,175.7c-0.1,1.1,0.9,2,2.3,2.1l5.3,0.4
				c1.3,0.1,2.5-0.7,2.6-1.7l0-0.2c0.1-1.1-0.9-2-2.3-2.1l-5.3-0.4c-1.3-0.1-2.5,0.7-2.6,1.7L255.5,175.7z"/>
		</g>
		<g>
			<path class="st5" d="M240.8,169.3l-2.8-5.6c-1.5-2.9-0.7-6.2,1.7-7.5l0.2-0.1c2.4-1.2,5.6,0.1,7,3l2.8,5.6
				c1.5,2.9,0.7,6.2-1.7,7.5l-0.2,0.1C245.4,173.5,242.2,172.1,240.8,169.3z M241.4,159.7c-0.9,0.5-1.2,1.9-0.6,3.1l2.4,4.7
				c0.6,1.2,1.9,1.8,2.8,1.3l0.1-0.1c0.9-0.5,1.2-1.9,0.6-3.1l-2.4-4.7c-0.6-1.2-1.9-1.8-2.8-1.3L241.4,159.7z"/>
		</g>
		<g>
			<path class="st3" d="M270,175.6c0-7.5,6.1-13.6,13.6-13.6s13.6,6.1,13.6,13.6s-6.1,13.6-13.6,13.6S270,183.1,270,175.6z
				 M275,175.6c0,4.7,3.9,8.6,8.6,8.6s8.6-3.9,8.6-8.6s-3.9-8.6-8.6-8.6S275,170.9,275,175.6z"/>
		</g>
		<path class="st17" d="M276.6,176.8v-0.3c0-1.2-1-2.2-2.2-2.2h-10.6c-1.2,0-2.2,1-2.2,2.2v0.3c0,1.2,1,2.2,2.2,2.2h10.6
			C275.7,179,276.6,178,276.6,176.8z"/>
		<path class="st8" d="M259.4,176.9L259.4,176.9c0.6-1.1,0.3-2.5-0.9-3.2l-10.8-6.3c-1.1-0.6-2.5-0.3-3.2,0.9l0,0
			c-0.6,1.1-0.3,2.5,0.9,3.2l10.8,6.3C257.3,178.4,258.8,178,259.4,176.9z"/>
		<path class="st8" d="M242.8,164.5L242.8,164.5c1.3,0,2.3-1.1,2.3-2.3v-12.5c0-1.3-1.1-2.3-2.3-2.3l0,0c-1.3,0-2.3,1.1-2.3,2.3
			v12.5C240.5,163.5,241.5,164.5,242.8,164.5z"/>
	</g>
</g>
</svg>
